:SAMPLES-PER-SECOND 30
:FULLY-SPECIFIED
:DEGREES
281
root  -33.2651 39.0098 0.556876 102.043 -85.08 -112.279
RightUpLeg  -10.6132 -13.1769 8.45581
RightLeg  28.311 -5.04212 -3.16645
RightFoot  -8.17893 0.210882 -9.60016
RightToes  0.000482159 0.542163 -0.142577
Spine  7.96584 -3.65056 6.59592
Spine1  7.55766 -4.16009 7.8579
HEad  -0.507922 0.68446 1.12335
LeftShoulder1  8.46227 -12.2579 -46.8413
LeftArm  -5.53806 16.8798 -28.4484
LeftForeArm  41.7802 -29.4383 -4.12735
LeftHand  -0.25398 0.0180481 5.50724
RightShoulder  4.23003 7.4661 32.6176
RightArm  -5.35978 -17.1722 39.2569
RightForeArm  4.38471 21.5362 4.70786
RightHand  -1.29077 4.20572 -15.864
LeftUpLeg  -11.2202 2.94031 8.24134
LeftLeg  68.543 1.10826 3.89346
LeftFoot  7.16563 0.894552 -5.75254
LeftToes  1.06246e-005 4.65855e-005 -8.18503e-006
282
root  -34.6011 39.2563 0.493436 135.397 -83.7583 -145.34
RightUpLeg  -8.17405 -11.6744 7.4958
RightLeg  27.6023 -3.4301 -2.0303
RightFoot  -9.65396 0.0737602 -9.40903
RightToes  0.000482159 0.542163 -0.142577
Spine  7.53945 -2.98844 6.71868
Spine1  7.30734 -3.25976 6.69523
HEad  -0.27662 1.09206 1.25352
LeftShoulder1  8.37441 -12.1578 -46.6466
LeftArm  -6.49614 17.578 -28.3872
LeftForeArm  41.0445 -30.1621 -4.32514
LeftHand  -0.25398 0.0180481 5.50724
RightShoulder  4.17115 7.35316 32.4765
RightArm  -3.38548 -16.2737 40.0485
RightForeArm  2.92733 24.4712 5.06277
RightHand  -1.29521 3.97338 -16.2882
LeftUpLeg  -15.068 2.66133 7.11764
LeftLeg  65.7466 1.87219 5.22682
LeftFoot  4.20816 0.571521 -4.35634
LeftToes  1.06246e-005 4.65855e-005 -8.18503e-006
283
root  -35.9215 39.5275 0.435035 153.456 -81.0448 -162.958
RightUpLeg  -5.72872 -9.80052 6.47023
RightLeg  26.3052 -1.97036 -0.975406
RightFoot  -10.7351 -0.0226416 -9.38168
RightToes  0.000482159 0.542163 -0.142577
Spine  6.89329 -2.42117 6.69828
Spine1  7.13714 -2.62001 5.55732
HEad  -0.333174 1.89955 0.664838
LeftShoulder1  8.36458 -12.0853 -46.8118
LeftArm  -7.3289 18.221 -28.0904
LeftForeArm  39.8708 -30.7917 -4.52711
LeftHand  -0.25398 0.0180481 5.50724
RightShoulder  4.16927 7.32726 32.5507
RightArm  -2.08048 -16.4688 40.0106
RightForeArm  2.87284 29.3653 6.23325
RightHand  -1.25557 3.58378 -16.4538
LeftUpLeg  -17.9719 1.96609 6.08277
LeftLeg  60.0352 2.97905 6.13136
LeftFoot  1.73294 0.338335 -3.07313
LeftToes  1.06246e-005 4.65855e-005 -8.18503e-006
284
root  -37.2055 39.7598 0.385568 163.675 -77.4555 -172.668
RightUpLeg  -3.50216 -7.25119 5.46483
RightLeg  25.0032 -0.567072 -0.254349
RightFoot  -11.7758 -0.114683 -9.34013
RightToes  0.000482159 0.542163 -0.142577
Spine  6.0252 -1.87518 6.49904
Spine1  7.41097 -2.08058 4.39829
HEad  -0.846174 3.0323 -0.262891
LeftShoulder1  8.34048 -11.9874 -46.9746
LeftArm  -8.08478 18.6448 -27.9347
LeftForeArm  39.0263 -31.1657 -4.65654
LeftHand  -0.25398 0.0180481 5.50724
RightShoulder  4.24901 7.45579 32.8265
RightArm  -0.943274 -17.287 39.4707
RightForeArm  4.0225 35.3001 7.72675
RightHand  -1.17365 2.9687 -16.4849
LeftUpLeg  -19.6237 1.49361 5.46401
LeftLeg  51.3672 4.25493 6.14307
LeftFoot  0.109685 0.409284 -4.09302
LeftToes  1.06246e-005 4.65855e-005 -8.18503e-006
285
root  -38.4667 39.8945 0.365896 168.857 -73.4218 -177.277
RightUpLeg  -1.86428 -4.47956 4.63446
RightLeg  24.4241 0.992624 0.337838
RightFoot  -12.9014 -0.210984 -9.09602
RightToes  0.000482159 0.542163 -0.142577
Spine  5.20779 -1.60502 6.51719
Spine1  7.77859 -1.78329 3.3064
HEad  -1.75091 4.37028 -1.22515
LeftShoulder1  8.24141 -11.8635 -46.7862
LeftArm  -8.95371 19.1488 -28.1409
LeftForeArm  38.6564 -31.3867 -4.7269
LeftHand  -0.25398 0.0180481 5.50724
RightShoulder  4.34279 7.60415 33.1531
RightArm  0.182265 -18.1892 38.9349
RightForeArm  6.09757 40.8584 9.30027
RightHand  -1.09088 2.32796 -16.5597
LeftUpLeg  -20.0481 0.74073 5.56198
LeftLeg  40.3397 5.30328 5.1832
LeftFoot  0.0394812 0.663433 -6.64173
LeftToes  1.06246e-005 4.65855e-005 -8.18503e-006
286
root  -39.7187 39.9777 0.363376 171.168 -69.1233 -178.989
RightUpLeg  -0.567563 -1.54136 4.07563
RightLeg  24.1666 2.51627 0.934268
RightFoot  -13.8217 -0.284144 -8.79428
RightToes  0.000482159 0.542163 -0.142577
Spine  4.68187 -1.56698 6.63172
Spine1  7.89695 -1.75484 2.4949
HEad  -2.93976 5.72322 -2.30448
LeftShoulder1  8.1713 -11.8171 -46.5224
LeftArm  -9.7095 19.8839 -28.5591
LeftForeArm  38.4313 -31.4022 -4.74229
LeftHand  -0.25398 0.0180481 5.50724
RightShoulder  4.36804 7.65364 33.2056
RightArm  1.53471 -18.9461 38.6045
RightForeArm  8.23913 45.1515 10.697
RightHand  -1.0369 1.9142 -16.6063
LeftUpLeg  -19.3934 -1.06638 6.408
LeftLeg  28.0921 5.71227 3.59034
LeftFoot  0.446382 0.760518 -7.38965
LeftToes  1.06246e-005 4.65855e-005 -8.18503e-006
287
root  -40.9395 40.0391 0.350751 172.264 -64.2111 -179.502
RightUpLeg  0.717123 2.04786 3.76328
RightLeg  23.689 3.80271 1.5207
RightFoot  -14.5802 -0.342373 -8.60892
RightToes  0.000482159 0.542163 -0.142577
Spine  4.44615 -1.46553 6.38365
Spine1  8.03603 -1.75308 2.12052
HEad  -4.40822 7.02078 -3.4475
LeftShoulder1  8.14169 -11.8048 -46.3872
LeftArm  -9.928 20.5254 -29.1296
LeftForeArm  38.0464 -30.9555 -4.65965
LeftHand  -0.25398 0.0180481 5.50724
RightShoulder  4.33984 7.65688 32.9426
RightArm  2.87708 -19.4279 38.3898
RightForeArm  10.0172 47.8724 11.6821
RightHand  -0.978819 1.63 -16.2978
LeftUpLeg  -18.1249 -2.72191 7.68422
LeftLeg  16.3377 3.95072 1.90422
LeftFoot  -0.0316687 0.61562 -6.19958
LeftToes  1.06246e-005 4.65855e-005 -8.18503e-006
288
root  -42.1411 40.0319 0.335079 172.875 -58.6844 -179.569
RightUpLeg  1.82472 6.10492 3.48508
RightLeg  23.4568 5.17512 2.22807
RightFoot  -15.6091 -0.418404 -8.39098
RightToes  0.000482159 0.542163 -0.142577
Spine  4.54619 -1.33852 5.75725
Spine1  8.251 -1.72884 2.06414
HEad  -6.1262 8.38107 -4.07582
LeftShoulder1  7.96917 -11.5854 -46.0518
LeftArm  -9.31099 20.7965 -29.8411
LeftForeArm  37.248 -30.0994 -4.50594
LeftHand  -0.25398 0.0180481 5.50724
RightShoulder  4.35714 7.72181 32.8715
RightArm  3.63981 -19.6188 38.1378
RightForeArm  11.2953 49.0036 12.0885
RightHand  -0.905244 1.3499 -15.6996
LeftUpLeg  -16.9038 -0.468093 8.40085
LeftLeg  7.46968 -2.65968 0.995574
LeftFoot  -1.37815 0.615479 -7.02631
LeftToes  1.06246e-005 4.65855e-005 -8.18503e-006
289
root  -43.3863 39.9487 0.355368 173.378 -53.1435 -179.567
RightUpLeg  2.49203 9.85498 2.90306
RightLeg  23.9587 6.80967 3.07982
RightFoot  -16.8868 -0.49881 -7.93335
RightToes  0.000482159 0.542163 -0.142577
Spine  5.07379 -1.48363 5.06986
Spine1  8.11163 -1.90662 2.07625
HEad  -7.93577 9.82306 -3.85496
LeftShoulder1  7.66703 -11.1491 -45.6106
LeftArm  -8.11608 20.8829 -30.2672
LeftForeArm  36.1189 -29.3734 -4.40113
LeftHand  -0.25398 0.0180481 5.50724
RightShoulder  4.43655 7.83631 33.1796
RightArm  3.27441 -19.8392 37.9319
RightForeArm  11.5151 48.6832 11.9313
RightHand  -0.898644 1.33321 -15.6259
LeftUpLeg  -16.2023 3.43129 8.91121
LeftLeg  3.54456 -10.1551 0.226468
LeftFoot  -2.44984 0.878011 -11.0361
LeftToes  1.06246e-005 4.65855e-005 -8.18503e-006
290
root  -44.7344 39.8422 0.446399 173.946 -47.942 -179.624
RightUpLeg  2.8598 13.4017 1.88837
RightLeg  24.6937 8.08822 3.8195
RightFoot  -18.0469 -0.553637 -7.35471
RightToes  0.000482159 0.542163 -0.142577
Spine  5.7492 -1.87939 4.75709
Spine1  7.64834 -2.28834 2.01914
HEad  -9.69136 10.9757 -3.2854
LeftShoulder1  7.53128 -10.8502 -45.7368
LeftArm  -7.26474 20.8997 -30.1214
LeftForeArm  35.3974 -29.0161 -4.35908
LeftHand  -0.25398 0.0180481 5.50724
RightShoulder  4.46715 7.86708 33.3421
RightArm  1.4225 -20.3992 37.9781
RightForeArm  10.0288 47.1554 11.3838
RightHand  -1.05632 1.94822 -16.813
LeftUpLeg  -15.8542 4.27769 9.33316
LeftLeg  4.2531 -13.2285 -0.788831
LeftFoot  -1.69104 1.21629 -14.2012
LeftToes  1.06246e-005 4.65855e-005 -8.18503e-006
291
root  -46.1895 39.7521 0.587422 174.735 -42.9527 -179.881
RightUpLeg  3.24296 17.2443 0.414212
RightLeg  24.8652 8.82388 4.21711
RightFoot  -19.0626 -0.573839 -6.59629
RightToes  0.000482159 0.542163 -0.142577
Spine  6.292 -2.26331 4.73673
Spine1  7.36418 -2.60112 1.76009
HEad  -11.379 11.3217 -2.91413
LeftShoulder1  7.57488 -10.8076 -46.1515
LeftArm  -7.22826 20.5348 -30.1651
LeftForeArm  35.4486 -28.5342 -4.24997
LeftHand  -0.25398 0.0180481 5.50724
RightShoulder  4.45217 7.81435 33.3933
RightArm  -1.79323 -21.076 37.8365
RightForeArm  7.03059 44.6356 10.5899
RightHand  -1.39191 3.21215 -18.9135
LeftUpLeg  -15.9232 2.78841 8.68189
LeftLeg  7.62505 -12.7375 -1.15752
LeftFoot  1.27488 1.45493 -13.2949
LeftToes  1.06246e-005 4.65855e-005 -8.18503e-006
292
root  -47.6554 39.7183 0.735644 175.783 -37.9161 179.521
RightUpLeg  3.55945 21.1981 -1.6374
RightLeg  24.3299 9.18187 4.2939
RightFoot  -19.7149 -0.489841 -4.8756
RightToes  0.000482159 0.542163 -0.142577
Spine  7.0367 -2.44991 4.10146
Spine1  7.11923 -2.78502 1.64908
HEad  -12.9246 10.8597 -2.57048
LeftShoulder1  7.43198 -10.6565 -45.7461
LeftArm  -7.23993 19.7215 -31.2348
LeftForeArm  35.3667 -27.7241 -4.07656
LeftHand  -0.25398 0.0180481 5.50724
RightShoulder  4.59176 7.95995 34.0992
RightArm  -5.57079 -21.4032 36.6506
RightForeArm  3.12883 41.1524 9.59437
RightHand  -1.8141 4.69905 -21.0119
LeftUpLeg  -16.3755 0.812585 7.53212
LeftLeg  11.473 -9.85457 -1.46173
LeftFoot  4.34247 1.30488 -9.62836
LeftToes  1.06246e-005 4.65855e-005 -8.18503e-006
293
root  -49.0263 39.7924 0.878941 177.136 -32.6411 178.47
RightUpLeg  3.07312 23.7302 -4.56003
RightLeg  23.838 8.50981 3.88304
RightFoot  -19.2368 -0.254185 -1.73285
RightToes  0.000482159 0.542163 -0.142577
Spine  8.28228 -2.3385 1.86997
Spine1  6.44606 -2.97897 2.48704
HEad  -14.1573 10.1276 -2.0575
LeftShoulder1  7.13888 -10.3413 -44.9171
LeftArm  -6.53045 18.9886 -32.4544
LeftForeArm  34.1898 -27.3469 -4.05532
LeftHand  -0.25398 0.0180481 5.50724
RightShoulder  4.89274 8.44632 34.9854
RightArm  -9.03478 -21.2898 34.8641
RightForeArm  -1.6001 36.6758 8.45469
RightHand  -2.23231 6.00407 -22.8455
LeftUpLeg  -16.6079 2.80517 5.79834
LeftLeg  14.1595 -7.764 -1.90619
LeftFoot  4.89788 0.946077 -6.80739
LeftToes  1.06246e-005 4.65855e-005 -8.18503e-006
